<?xml version="1.0" encoding="UTF-8" standalone="no"?><!-- Generator: Gravit.io --><svg xmlns="http://www.w3.org/2000/svg" xmlns:xlink="http://www.w3.org/1999/xlink" style="isolation:isolate" viewBox="0 0 640 512" width="640pt" height="512pt"><defs><clipPath id="_clipPath_x6FNewqkrnCigUc3dNgWlGbTuo4U7BtX"><rect width="640" height="512"/></clipPath></defs><g clip-path="url(#_clipPath_x6FNewqkrnCigUc3dNgWlGbTuo4U7BtX)"><path d=" M 255.03 261.65 C 261.28 267.9 271.41 267.9 277.66 261.65 L 288.97 250.34 C 295.22 244.09 295.22 233.96 288.97 227.71 L 253.25 192 L 288.96 156.28 C 295.21 150.03 295.21 139.9 288.96 133.65 L 277.65 122.34 C 271.4 116.09 261.27 116.09 255.02 122.34 L 196.68 180.68 C 190.43 186.93 190.43 197.06 196.68 203.31 L 255.03 261.65 L 255.03 261.65 Z  M 351.04 250.35 L 362.35 261.66 C 368.6 267.91 378.73 267.91 384.98 261.66 L 443.32 203.32 C 449.57 197.07 449.57 186.94 443.32 180.69 L 384.98 122.35 C 378.73 116.1 368.6 116.1 362.35 122.35 L 351.04 133.66 C 344.79 139.91 344.79 150.04 351.04 156.29 L 386.75 192 L 351.04 227.72 C 344.79 233.97 344.79 244.1 351.04 250.35 L 351.04 250.35 Z  M 624 416 L 381.54 416 C 380.8 435.81 366.83 448 348.8 448 L 288 448 C 269.31 448 254.98 430.53 255.23 416 L 16 416 C 7.2 416 0 423.2 0 432 L 0 448 C 0 483.2 28.8 512 64 512 L 576 512 C 611.2 512 640 483.2 640 448 L 640 432 C 640 423.2 632.8 416 624 416 Z  M 576 48 C 576 21.6 554.4 0 528 0 L 112 0 C 85.6 0 64 21.6 64 48 L 64 384 L 576 384 L 576 48 L 576 48 Z  M 512 320 L 128 320 L 128 64 L 512 64 L 512 320 L 512 320 Z " fill="rgb(52,24,47)"/></g></svg>